<svg width="119" height="94" viewBox="0 0 119 94" fill="none" xmlns="http://www.w3.org/2000/svg">
<path fill-rule="evenodd" clip-rule="evenodd" d="M14.2733 79.7112C11.6496 73.9546 10.1493 67.7378 9.86588 61.3959C9.52939 53.8666 10.9169 46.3599 13.9227 39.4485C16.9285 32.537 21.4731 26.4033 27.2099 21.5153C32.9466 16.6272 39.724 13.114 47.025 11.2435C54.326 9.37307 61.9577 9.1948 69.3381 10.7223C76.7185 12.2498 83.6525 15.4428 89.6112 20.0576C95.57 24.6724 100.396 30.5872 103.721 37.3508C107.046 44.1144 108.783 51.5481 108.798 59.0849C108.808 66.226 107.257 73.2681 104.27 79.7234C101.986 77.0642 99.4685 74.6123 96.7488 72.3969C98.3326 67.9027 99.0992 63.1512 99.0021 58.3684C98.8817 52.4375 97.4363 46.6085 94.7716 41.3085C92.107 36.0085 88.2907 31.3715 83.6021 27.7373C78.9135 24.103 73.4713 21.5635 67.6743 20.3046C61.8772 19.0458 55.872 19.0995 50.0983 20.4618C44.3247 21.8242 38.9289 24.4607 34.3061 28.1782C29.6832 31.8958 25.9504 36.6002 23.381 41.9471C20.8117 47.294 19.4707 53.1478 19.4564 59.08C19.4537 63.6322 20.2387 68.1418 21.768 72.4112C19.0588 74.6194 16.5508 77.0624 14.2733 79.7112ZM7.93836 88.6264C3.2186 80.4691 0.510411 71.2833 0.0648849 61.8335C-0.439204 51.1408 1.97263 40.5121 7.04245 31.0842C12.1123 21.6563 19.6494 13.7838 28.8478 8.30862C38.0462 2.83341 48.5599 -0.0385409 59.2644 -0.000101886C69.9695 -0.0388219 80.4837 2.83319 89.6825 8.30874C98.8813 13.7843 106.419 21.6574 111.488 31.086C116.558 40.5145 118.969 51.1439 118.464 61.8371C118.018 71.2847 115.31 80.4682 110.592 88.6237C110.594 88.6275 110.596 88.6312 110.598 88.635C109.603 90.3513 108.521 92.0161 107.357 93.623H101.215C96.9061 86.3317 90.7708 80.2895 83.4145 76.0922C76.0582 71.8949 67.7349 69.6874 59.2654 69.6874C50.7959 69.6874 42.4726 71.8949 35.1163 76.0922C27.76 80.2895 21.6247 86.3317 17.3154 93.623H11.1734C10.0134 92.0157 8.93342 90.353 7.93342 88.635C7.93506 88.6321 7.93671 88.6293 7.93836 88.6264ZM30.1727 66.6865C33.0736 65.056 36.096 63.6786 39.2064 62.5633C38.8409 60.4649 38.8065 58.3152 39.1109 56.1934C39.5706 52.9891 40.7895 49.9412 42.6661 47.3036C44.5426 44.666 47.0224 42.5152 49.8988 41.0303C52.7752 39.5455 55.9648 38.7697 59.2019 38.7676C62.4389 38.7655 65.6296 39.5371 68.5078 41.0182C71.3862 42.4993 73.8688 44.6469 75.7488 47.2821C77.6287 49.9172 78.8516 52.9636 79.3155 56.1672C79.6222 58.2854 79.5912 60.4317 79.2299 62.5275C82.3748 63.649 85.4301 65.0382 88.3613 66.6858C89.3119 63.0624 89.5798 59.2834 89.1405 55.5436C88.5709 50.694 86.8292 46.0561 84.0658 42.0303C81.3025 38.0046 77.6006 34.7121 73.2799 32.4373C68.9593 30.1625 64.1498 28.9737 59.2669 28.9737C54.384 28.9737 49.5746 30.1625 45.2539 32.4373C40.9333 34.7121 37.2314 38.0046 34.4681 42.0303C31.7047 46.0561 29.963 50.694 29.3933 55.5436C28.954 59.2837 29.222 63.0629 30.1727 66.6865ZM69.7785 60.014C69.8346 59.3765 69.833 58.733 69.7726 58.0913C69.6086 56.3501 69.0164 54.6765 68.0486 53.2197C67.0809 51.763 65.7678 50.5683 64.2263 49.7422C62.6848 48.9161 60.9628 48.4842 59.2139 48.4851C57.465 48.486 55.7434 48.9196 54.2028 49.7473C52.6621 50.575 51.3502 51.771 50.3839 53.2288C49.4177 54.6865 48.8272 56.3607 48.665 58.1021C48.605 58.7461 48.6043 59.3918 48.6616 60.0315C52.1469 59.401 55.695 59.0818 59.2644 59.085C62.8035 59.0813 66.3217 59.3945 69.7785 60.014ZM59.2644 76.178C52.7671 76.1715 46.3671 77.7573 40.6245 80.7968C34.882 83.8362 29.9717 88.2366 26.3234 93.613H39.1164C44.6461 88.6324 51.8244 85.8762 59.2664 85.8762C66.7084 85.8762 73.8868 88.6324 79.4164 93.613H92.2044C88.5562 88.2368 83.6462 83.8364 77.9038 80.797C72.1614 77.7576 65.7616 76.1717 59.2644 76.178Z" fill="white"/>
</svg>
