<svg width="119" height="94" viewBox="0 0 119 94" fill="none" xmlns="http://www.w3.org/2000/svg">
<path d="M16.0674 82.8939C12.457 76.2781 10.4054 68.9252 10.0689 61.3959C9.73235 53.8666 11.1199 46.3599 14.1257 39.4485C17.1315 32.537 21.6761 26.4033 27.4128 21.5153C33.1496 16.6272 39.927 13.114 47.228 11.2435C54.5289 9.37307 62.1607 9.1948 69.5411 10.7223C76.9214 12.2498 83.8555 15.4428 89.8142 20.0576C95.7729 24.6724 100.599 30.5872 103.924 37.3508C107.249 44.1144 108.986 51.5481 109.001 59.0849C109.013 67.4139 106.901 75.6082 102.864 82.8939C105.131 85.6633 107.127 88.6436 108.824 91.7939C114.76 82.885 118.162 72.5302 118.667 61.8371C119.172 51.1439 116.761 40.5145 111.691 31.086C106.622 21.6574 99.0842 13.7843 89.8854 8.30874C80.6867 2.83319 70.1724 -0.0388219 59.4674 -0.000101886C48.7629 -0.0385409 38.2492 2.83341 29.0508 8.30862C19.8524 13.7838 12.3153 21.6563 7.24543 31.0842C2.17559 40.5121 -0.236247 51.1408 0.267862 61.8335C0.77197 72.5262 4.17306 82.8808 10.1074 91.7899C11.8053 88.641 13.8011 85.662 16.0674 82.8939V82.8939Z" fill="#DBDB3E"/>
<path d="M31.4014 69.865C29.6462 65.3085 29.0266 60.3931 29.5963 55.5436C30.166 50.694 31.9077 46.0561 34.671 42.0303C37.4344 38.0046 41.1362 34.7121 45.4569 32.4373C49.7775 30.1625 54.587 28.9737 59.4699 28.9737C64.3528 28.9737 69.1623 30.1625 73.4829 32.4373C77.8036 34.7121 81.5054 38.0046 84.2688 42.0303C87.0321 46.0561 88.7738 50.694 89.3435 55.5436C89.9132 60.3931 89.2936 65.3085 87.5384 69.865C90.4121 71.5291 93.1333 73.4435 95.6704 75.586C98.1178 70.1822 99.3255 64.2994 99.2051 58.3684C99.0847 52.4375 97.6393 46.6085 94.9746 41.3085C92.31 36.0085 88.4936 31.3715 83.805 27.7373C79.1164 24.103 73.6743 21.5635 67.8772 20.3046C62.0802 19.0458 56.0749 19.0995 50.3013 20.4618C44.5277 21.8242 39.1319 24.4607 34.509 28.1782C29.8862 31.8958 26.1534 36.6002 23.584 41.9471C21.0146 47.294 19.6737 53.1478 19.6594 59.08C19.656 64.7779 20.8866 70.4089 23.2664 75.586C25.8044 73.4433 28.5267 71.5289 31.4014 69.865V69.865Z" fill="#DBDB3E"/>
<path d="M49.6574 63.209C48.977 61.5979 48.7058 59.8435 48.868 58.1021C49.0301 56.3607 49.6207 54.6865 50.5869 53.2288C51.5532 51.771 52.8651 50.575 54.4058 49.7473C55.9464 48.9196 57.6679 48.486 59.4169 48.4851C61.1658 48.4842 62.8877 48.9161 64.4292 49.7422C65.9707 50.5683 67.2839 51.763 68.2516 53.2197C69.2194 54.6765 69.8116 56.3501 69.9756 58.0913C70.1396 59.8325 69.8701 61.5872 69.1914 63.199C72.4008 63.7551 75.5552 64.5917 78.6184 65.699C79.6737 62.6389 79.9823 59.3708 79.5185 56.1672C79.0546 52.9636 77.8317 49.9172 75.9517 47.2821C74.0718 44.6469 71.5891 42.4993 68.7108 41.0182C65.8325 39.5371 62.6419 38.7655 59.4048 38.7676C56.1678 38.7697 52.9782 39.5455 50.1018 41.0303C47.2254 42.5152 44.7456 44.666 42.8691 47.3036C40.9925 49.9412 39.7736 52.9891 39.3139 56.1934C38.8542 59.3976 39.1671 62.6653 40.2264 65.724C43.2907 64.6124 46.4464 63.7709 49.6574 63.209V63.209Z" fill="#DBDB3E"/>
<path d="M59.4674 76.178C52.9701 76.1715 46.5701 77.7573 40.8275 80.7968C35.0849 83.8362 30.1747 88.2366 26.5264 93.613H39.3194C44.849 88.6324 52.0274 85.8762 59.4694 85.8762C66.9114 85.8762 74.0897 88.6324 79.6194 93.613H92.4074C88.7592 88.2368 83.8491 83.8364 78.1067 80.797C72.3643 77.7576 65.9646 76.1717 59.4674 76.178V76.178Z" fill="#00687D"/>
<path d="M59.4674 59.085C49.0713 59.0757 38.8556 61.8012 29.8458 66.9879C20.836 72.1746 13.349 79.6401 8.13638 88.635C9.13638 90.353 10.2164 92.0157 11.3764 93.623H17.5184C21.8277 86.3317 27.963 80.2895 35.3193 76.0922C42.6756 71.8949 50.9989 69.6874 59.4684 69.6874C67.9379 69.6874 76.2612 71.8949 83.6175 76.0922C90.9738 80.2895 97.1091 86.3317 101.418 93.623H107.56C108.724 92.0161 109.806 90.3513 110.801 88.635C105.589 79.6389 98.1021 72.1725 89.0915 66.9857C80.0809 61.7988 69.8642 59.074 59.4674 59.085V59.085Z" fill="#00687D"/>
</svg>
