<svg width="264" height="55" viewBox="0 0 264 55" fill="none" xmlns="http://www.w3.org/2000/svg">
<path d="M92.8743 13.877C93.5815 13.877 94.2036 14.0795 94.7489 14.4804C95.29 14.8813 95.6565 15.4341 95.8482 16.1345L103.134 41.6977H94.1354L89.9046 23.595C89.7938 23.0844 89.7001 22.5528 89.6191 22C89.5382 21.4514 89.47 20.9197 89.4146 20.4049H88.3154C88.26 20.9155 88.1918 21.4472 88.1109 22C88.0299 22.5528 87.9362 23.0844 87.8254 23.595L83.5946 41.6977H74.5961L81.8818 16.1345C82.0735 15.4341 82.4399 14.8855 82.981 14.4804C83.5221 14.0753 84.1484 13.877 84.8557 13.877H92.8743ZM96.3339 29.5617V35.6888H81.3918V29.5617H96.3339Z" fill="white"/>
<path d="M116.891 13.3158C118.383 13.3158 119.695 13.3537 120.82 13.4381C121.945 13.5183 122.993 13.6407 123.956 13.801C124.919 13.9614 125.89 14.1892 126.866 14.4888L126.214 20.7762C125.183 20.7509 124.199 20.734 123.261 20.734C122.324 20.734 121.352 20.7298 120.351 20.7129C119.346 20.7003 118.208 20.6918 116.93 20.6918C116.142 20.6918 115.49 20.7931 114.974 20.9957C114.459 21.1982 114.05 21.5611 113.751 22.0844C113.453 22.6076 113.244 23.3334 113.121 24.2617C113.002 25.1901 112.938 26.3674 112.938 27.7894C112.938 29.6714 113.044 31.1146 113.261 32.1231C113.479 33.1316 113.845 33.8321 114.361 34.2203C114.876 34.6127 115.596 34.8026 116.517 34.8026C117.113 34.8026 117.663 34.7815 118.165 34.7436C118.668 34.7014 119.12 34.6423 119.529 34.5621C119.938 34.4819 120.262 34.4144 120.505 34.3596L121.361 38.0265C121.037 38.5624 120.5 39.1701 119.75 39.841C119.005 40.5161 118.059 41.0858 116.921 41.5542C115.779 42.0226 114.463 42.2589 112.972 42.2589C110.829 42.2589 109.065 41.7821 107.68 40.8284C106.295 39.8747 105.277 38.3346 104.625 36.212C103.973 34.0895 103.649 31.2792 103.649 27.7852C103.649 24.2111 104.075 21.367 104.932 19.2571C105.788 17.1473 107.186 15.6282 109.124 14.6998C111.076 13.7799 113.662 13.3158 116.891 13.3158ZM128.046 25.6922V41.6977H121.531L120.389 37.3851L119.576 35.8955V25.6964H128.046V25.6922Z" fill="white"/>
<path d="M143.516 13.4761C146.286 13.4761 148.535 13.7335 150.274 14.2441C152.012 14.7547 153.294 15.6197 154.121 16.8434C154.948 18.0672 155.361 19.7677 155.361 21.9451C155.361 23.0464 155.19 24.0761 154.854 25.0297C154.513 25.9834 153.929 26.7682 153.103 27.3885C152.276 28.0046 151.13 28.3971 149.664 28.5574V28.7979C150.18 28.8528 150.751 29.0089 151.373 29.2621C151.995 29.5195 152.579 29.9457 153.124 30.5533C153.665 31.1568 154.044 32.0218 154.266 33.1527L156.464 41.6977H147.223L145.391 33.4312C145.229 32.6506 144.978 32.14 144.637 31.8994C144.296 31.6589 143.746 31.5365 142.988 31.5365C140.951 31.5112 139.29 31.4986 138.003 31.4986C136.712 31.4986 135.621 31.4859 134.727 31.4564C133.832 31.4311 132.937 31.3889 132.042 31.334L132.162 25.3673H143.316C144.155 25.3673 144.807 25.2871 145.272 25.1268C145.732 24.9622 146.051 24.6753 146.226 24.2575C146.405 23.8398 146.49 23.2574 146.49 22.5021C146.49 21.7214 146.401 21.1307 146.226 20.7298C146.051 20.3289 145.732 20.0462 145.272 19.8816C144.811 19.7213 144.16 19.6369 143.316 19.6369C140.491 19.6369 138.118 19.6496 136.192 19.6791C134.266 19.7044 132.95 19.7593 132.243 19.8394L131.591 13.8727C132.839 13.7377 134.011 13.6449 135.11 13.59C136.209 13.5394 137.415 13.5056 138.732 13.4888C140.048 13.4845 141.642 13.4761 143.516 13.4761ZM140.257 13.877V41.6977H131.586V13.877H140.257Z" fill="white"/>
<path d="M171.074 13.3158C173.49 13.3158 175.531 13.5352 177.201 13.9782C178.871 14.4213 180.222 15.1809 181.253 16.2569C182.284 17.3329 183.029 18.8014 183.49 20.6707C183.95 22.5401 184.18 24.9116 184.18 27.7852C184.18 30.6335 183.95 33.0008 183.49 34.8828C183.029 36.7648 182.28 38.2417 181.253 39.3177C180.222 40.3938 178.871 41.1533 177.201 41.5964C175.531 42.0395 173.49 42.2631 171.074 42.2631C168.688 42.2631 166.656 42.0395 164.99 41.5964C163.32 41.1533 161.969 40.3938 160.938 39.3177C159.907 38.2417 159.161 36.7648 158.697 34.8828C158.237 33.0008 158.007 30.6377 158.007 27.7852C158.007 24.9074 158.237 22.5359 158.697 20.6707C159.157 18.8014 159.903 17.3329 160.938 16.2569C161.969 15.1809 163.32 14.4213 164.99 13.9782C166.66 13.5352 168.688 13.3158 171.074 13.3158ZM171.074 19.8057C170.069 19.8057 169.297 20.0209 168.756 20.4513C168.215 20.8817 167.832 21.675 167.614 22.8312C167.397 23.9875 167.291 25.6416 167.291 27.7894C167.291 29.9415 167.397 31.5914 167.614 32.7476C167.832 33.9038 168.211 34.6971 168.756 35.1275C169.297 35.558 170.073 35.7732 171.074 35.7732C172.08 35.7732 172.851 35.558 173.396 35.1275C173.937 34.6971 174.321 33.9038 174.538 32.7476C174.755 31.5914 174.866 29.9415 174.866 27.7894C174.866 25.6416 174.755 23.9875 174.538 22.8312C174.321 21.675 173.942 20.8817 173.396 20.4513C172.851 20.0209 172.08 19.8057 171.074 19.8057Z" fill="white"/>
<path d="M193.502 13.877V35.2457C193.502 36.0264 193.715 36.6087 194.133 37.0011C194.555 37.3936 195.155 37.5835 195.944 37.5835H205.875L206.118 41.415C204.273 41.5753 202.352 41.6766 200.358 41.7188C198.364 41.7568 196.387 41.7779 194.435 41.7779C192.373 41.7779 190.861 41.2546 189.898 40.2039C188.935 39.1532 188.453 37.824 188.453 36.212V13.877H193.502Z" fill="white"/>
<path d="M214.959 13.877V41.6977H209.872V13.877H214.959Z" fill="white"/>
<path d="M241.337 13.877V17.9912H218.823V13.877H241.337ZM232.623 13.877V41.6977H227.536V13.877H232.623Z" fill="white"/>
<path d="M250.74 13.7969C252.15 13.7969 253.595 13.7969 255.077 13.7969C256.556 13.7969 258.013 13.8222 259.453 13.8771C260.889 13.9319 262.248 14.0121 263.522 14.1176L263.279 17.8689H252.287C251.528 17.8689 250.962 18.0588 250.595 18.4344C250.229 18.8099 250.045 19.4007 250.045 20.2067V35.3682C250.045 36.1741 250.229 36.7649 250.595 37.1404C250.962 37.516 251.524 37.7059 252.287 37.7059H263.279L263.522 41.4572C262.244 41.5669 260.889 41.6387 259.453 41.6767C258.013 41.7189 256.556 41.7442 255.077 41.7568C253.599 41.7695 252.15 41.7779 250.74 41.7779C249.002 41.7779 247.613 41.3011 246.569 40.3474C245.525 39.3938 244.988 38.111 244.963 36.4948V19.0758C244.988 17.4638 245.525 16.181 246.569 15.2231C247.613 14.2737 249.002 13.7969 250.74 13.7969ZM245.691 25.2872H261.728V28.9964H245.691V25.2872Z" fill="white"/>
<path d="M9.24623 48.3185C6.97064 44.2298 5.66988 39.5333 5.66988 34.5343C5.66988 18.7437 18.5952 5.94246 34.539 5.94246C50.4828 5.94246 63.4081 18.7437 63.4081 34.5343C63.4081 39.5333 62.1103 44.2298 59.8318 48.3185C61.1472 49.915 62.3129 51.6395 63.3054 53.4686C66.9522 48.048 69.078 41.5369 69.078 34.5343C69.078 15.6408 53.6128 0.327026 34.539 0.327026C15.4652 0.327026 0 15.6408 0 34.5343C0 41.5369 2.12584 48.048 5.77265 53.4686C6.7651 51.6395 7.93079 49.915 9.24623 48.3185Z" fill="#DBDB3E"/>
<path d="M18.1812 40.7751C17.4266 38.8383 17.0096 36.7329 17.0096 34.5315C17.0096 24.9437 24.8582 17.1705 34.539 17.1705C44.2198 17.1705 52.0683 24.9437 52.0683 34.5315C52.0683 36.7329 51.6514 38.8354 50.8968 40.7751C52.5763 41.7406 54.1619 42.8514 55.6359 44.0874C56.9807 41.1764 57.7382 37.9427 57.7382 34.5315C57.7382 21.8408 47.3527 11.5551 34.539 11.5551C21.7252 11.5551 11.3397 21.8408 11.3397 34.5315C11.3397 37.9427 12.0973 41.1764 13.4421 44.0874C14.9161 42.8514 16.5016 41.7406 18.1812 40.7751Z" fill="#DBDB3E"/>
<path d="M28.8221 36.9219C28.5079 36.1891 28.3347 35.3806 28.3347 34.5344C28.3347 31.1465 31.1006 28.4013 34.5125 28.4013C37.9244 28.4013 40.6904 31.1465 40.6904 34.5344C40.6904 35.3777 40.5171 36.1833 40.2059 36.9161C42.0968 37.2447 43.9349 37.7245 45.6996 38.3614C46.1165 37.1604 46.3456 35.875 46.3456 34.5344C46.3456 28.0466 41.0456 22.7888 34.5096 22.7888C27.9735 22.7888 22.6736 28.0495 22.6736 34.5344C22.6736 35.8808 22.9055 37.172 23.3254 38.3759C25.093 37.7362 26.9311 37.2534 28.8221 36.9219Z" fill="#DBDB3E"/>
<path d="M34.5391 44.4304C26.5496 44.4304 19.5114 48.4348 15.3419 54.5243H22.797C25.9036 51.7442 30.0202 50.0459 34.5391 50.0459C39.0579 50.0459 43.1746 51.7413 46.2811 54.5243H53.7362C49.5667 48.4348 42.5286 44.4304 34.5391 44.4304Z" fill="#00687D"/>
<path d="M34.5391 34.5343C21.7547 34.5343 10.597 41.4147 4.62463 51.6394C5.20601 52.634 5.8373 53.5965 6.51264 54.5271H10.0919C15.0189 46.2363 24.1213 40.6703 34.5391 40.6703C44.9569 40.6703 54.0592 46.2363 58.9862 54.5271H62.5655C63.2408 53.5994 63.8721 52.6369 64.4535 51.6394C58.4812 41.4118 47.3235 34.5343 34.5391 34.5343Z" fill="#00687D"/>
</svg>
